<?xml version="1.0" standalone="no"?>
<!DOCTYPE svg PUBLIC "-//W3C//DTD SVG 20010904//EN"
 "http://www.w3.org/TR/2001/REC-SVG-20010904/DTD/svg10.dtd">
<svg version="1.0" xmlns="http://www.w3.org/2000/svg"
 width="300.000000pt" height="300.000000pt" viewBox="0 0 300.000000 300.000000"
 preserveAspectRatio="xMidYMid meet">
<metadata>
Created by potrace 1.10, written by Peter Selinger 2001-2011
</metadata>
<g transform="translate(0.000000,300.000000) scale(0.100000,-0.100000)"
fill="#FFFFFF" stroke="none">
<path d="M850 2539 c-93 -15 -169 -54 -263 -132 -53 -44 -105 -131 -85 -143 7
-4 13 -3 15 2 15 41 58 96 108 137 78 62 147 96 228 110 63 10 66 10 183 -33
66 -24 146 -51 179 -62 79 -24 345 -68 414 -68 l54 0 -46 -48 c-91 -98 -105
-159 -132 -553 -8 -120 -22 -253 -30 -296 -21 -110 -75 -265 -126 -364 -68
-130 -209 -269 -310 -305 -40 -13 -51 -13 -116 1 -39 9 -77 23 -83 31 -16 18
-40 18 -40 -1 0 -20 46 -42 123 -60 57 -13 70 -13 115 0 64 19 150 83 229 169
72 79 158 243 194 368 l22 77 39 -22 c47 -26 193 -169 253 -247 23 -30 86
-120 140 -200 144 -213 260 -349 339 -395 55 -32 172 -55 203 -41 42 20 26 33
-42 34 -119 2 -139 12 -251 126 -70 72 -131 149 -204 257 -57 85 -126 183
-152 219 -61 81 -223 247 -261 267 -16 8 -27 17 -24 19 2 3 33 13 68 23 181
52 366 176 488 328 91 114 201 334 186 372 -6 14 -8 14 -21 -3 -8 -11 -14 -27
-14 -36 0 -27 -87 -198 -142 -277 -113 -163 -309 -301 -514 -362 -87 -26 -87
-26 -79 -2 14 45 26 147 35 306 15 255 36 401 65 460 41 83 118 155 164 155
38 0 222 47 235 60 34 34 -100 25 -201 -13 -46 -17 -77 -21 -148 -19 -151 3
-361 44 -535 105 -179 62 -199 67 -260 56z"/>
</g>
</svg>
